# xmcd
#
# Track frame offsets:
#	150
#	12146
#	27608
#	47608
#	60629
#	72150
#	91872
#	104689
#	118494
#	133466
#	143797
#	149994
#	159090
#
# Disc length: 3115 seconds
#
# Revision: 1
# Processed by: cddbd v1.5.2PL0 Copyright (c) Steve Scherf et al.
# Submitted via: audiograbber 1.83.01
#
DISCID=c60c290d
DTITLE=The Charlie Daniels Band - Hallelujah It's Christmas Time Again
DYEAR=2012
DGENRE=Christmas
TTITLE0=Mississippi Christmas Eve
TTITLE1=I'll Be Home For Christmas
TTITLE2=The Christmas Song
TTITLE3=Hallelujah
TTITLE4=What Child Is This
TTITLE5=White Christmas
TTITLE6=Rudolph the Red-Nosed Reindeer
TTITLE7=Jesus is the Light of the World
TTITLE8=Blue Christmas
TTITLE9=Joy to the World
TTITLE10=The Christmas Story from the Book of Luke
TTITLE11=O Little Town of Bethlehem
TTITLE12=A Carolina Christmas Carol
EXTD=
EXTT0=
EXTT1=
EXTT2=
EXTT3=
EXTT4=
EXTT5=
EXTT6=
EXTT7=
EXTT8=
EXTT9=
EXTT10=
EXTT11=
EXTT12=
PLAYORDER=
